<?xml version="1.0" encoding="UTF-8"?>
<svg width="4301px" height="2214px" viewBox="0 0 4301 2214" version="1.1" xmlns="http://www.w3.org/2000/svg" xmlns:xlink="http://www.w3.org/1999/xlink">
    <!-- Generator: Sketch 58 (84663) - https://sketch.com -->
    <title>git_field</title>
    <desc>Created with Sketch.</desc>
    <g id="Page-1" stroke="none" stroke-width="1" fill="none" fill-rule="evenodd">
        <g id="Row-0" transform="translate(5.000000, 2137.000000)">
            <rect id="Rectangle" fill="#7CCC6C" x="1118" y="0" width="76" height="76"></rect>
            <rect id="Rectangle" fill="#7CCC6C" x="1032" y="0" width="76" height="76"></rect>
            <rect id="Rectangle" fill="#C4E48C" x="946" y="0" width="76" height="76"></rect>
            <rect id="Rectangle" fill="#C4E48C" x="1290" y="0" width="76" height="76"></rect>
            <rect id="Rectangle" fill="#C4E48C" x="1204" y="0" width="76" height="76"></rect>
            <rect id="Rectangle" fill="#C4E48C" x="1376" y="0" width="76" height="76"></rect>
            <rect id="Rectangle" fill="#C4E48C" x="1548" y="0" width="76" height="76"></rect>
            <rect id="Rectangle" fill="#C4E48C" x="1462" y="0" width="76" height="76"></rect>
            <rect id="Rectangle" fill="#C4E48C" x="1634" y="0" width="76" height="76"></rect>
            <rect id="Rectangle" fill="#C4E48C" x="1806" y="0" width="76" height="76"></rect>
            <rect id="Rectangle" fill="#C4E48C" x="1720" y="0" width="76" height="76"></rect>
            <rect id="Rectangle" fill="#C4E48C" x="172" y="0" width="76" height="76"></rect>
            <rect id="Rectangle" fill="#C4E48C" x="86" y="0" width="76" height="76"></rect>
            <rect id="Rectangle" fill="#7CCC6C" x="0" y="0" width="76" height="76"></rect>
            <rect id="Rectangle" fill="#7CCC6C" x="344" y="0" width="76" height="76"></rect>
            <rect id="Rectangle" fill="#7CCC6C" x="258" y="0" width="76" height="76"></rect>
            <rect id="Rectangle" fill="#7CCC6C" x="430" y="0" width="76" height="76"></rect>
            <rect id="Rectangle" fill="#C4E48C" x="602" y="0" width="76" height="76"></rect>
            <rect id="Rectangle" fill="#C4E48C" x="516" y="0" width="76" height="76"></rect>
            <rect id="Rectangle" fill="#C4E48C" x="688" y="0" width="76" height="76"></rect>
            <rect id="Rectangle" fill="#C4E48C" x="860" y="0" width="76" height="76"></rect>
            <rect id="Rectangle" fill="#C4E48C" x="774" y="0" width="76" height="76"></rect>
            <rect id="Rectangle" fill="#C4E48C" x="3010" y="0" width="76" height="76"></rect>
            <rect id="Rectangle" fill="#C4E48C" x="2924" y="0" width="76" height="76"></rect>
            <rect id="Rectangle" fill="#C4E48C" x="2838" y="0" width="76" height="76"></rect>
            <rect id="Rectangle" fill="#C4E48C" x="3182" y="0" width="76" height="76"></rect>
            <rect id="Rectangle" fill="#C4E48C" x="3096" y="0" width="76" height="76"></rect>
            <rect id="Rectangle" fill="#C4E48C" x="3268" y="0" width="76" height="76"></rect>
            <rect id="Rectangle" fill="#C4E48C" x="3440" y="0" width="76" height="76"></rect>
            <rect id="Rectangle" fill="#7CCC6C" x="3354" y="0" width="76" height="76"></rect>
            <rect id="Rectangle" fill="#C4E48C" x="3526" y="0" width="76" height="76"></rect>
            <rect id="Rectangle" fill="#C4E48C" x="3698" y="0" width="76" height="76"></rect>
            <rect id="Rectangle" fill="#C4E48C" x="3784" y="0" width="76" height="76"></rect>
            <rect id="Rectangle" fill="#C4E48C" x="3870" y="0" width="76" height="76"></rect>
            <rect id="Rectangle" fill="#C4E48C" x="3956" y="0" width="76" height="76"></rect>
            <rect id="Rectangle" fill="#C4E48C" x="4042" y="0" width="76" height="76"></rect>
            <rect id="Rectangle" fill="#C4E48C" x="4128" y="0" width="76" height="76"></rect>
            <rect id="Rectangle" fill="#C4E48C" x="4214" y="0" width="76" height="76"></rect>
            <rect id="Rectangle" fill="#C4E48C" x="3612" y="0" width="76" height="76"></rect>
            <rect id="Rectangle" fill="#7CCC6C" x="2064" y="0" width="76" height="76"></rect>
            <rect id="Rectangle" fill="#C4E48C" x="1978" y="0" width="76" height="76"></rect>
            <rect id="Rectangle" fill="#7CCC6C" x="1892" y="0" width="76" height="76"></rect>
            <rect id="Rectangle" fill="#C4E48C" x="2236" y="0" width="76" height="76"></rect>
            <rect id="Rectangle" fill="#C4E48C" x="2150" y="0" width="76" height="76"></rect>
            <rect id="Rectangle" fill="#C4E48C" x="2322" y="0" width="76" height="76"></rect>
            <rect id="Rectangle" fill="#C4E48C" x="2494" y="0" width="76" height="76"></rect>
            <rect id="Rectangle" fill="#7CCC6C" x="2408" y="0" width="76" height="76"></rect>
            <rect id="Rectangle" fill="#C4E48C" x="2580" y="0" width="76" height="76"></rect>
            <rect id="Rectangle" fill="#C4E48C" x="2752" y="1" width="76" height="76"></rect>
            <rect id="Rectangle" fill="#C4E48C" x="2666" y="0" width="76" height="76"></rect>
        </g>
        <g id="Row-1" transform="translate(5.000000, 2050.000000)">
            <rect id="Rectangle" fill="#7CCC6C" x="1118" y="0" width="76" height="76"></rect>
            <rect id="Rectangle" fill="#7CCC6C" x="1032" y="0" width="76" height="76"></rect>
            <rect id="Rectangle" fill="#C4E48C" x="946" y="0" width="76" height="76"></rect>
            <rect id="Rectangle" fill="#7CCC6C" x="1290" y="0" width="76" height="76"></rect>
            <rect id="Rectangle" fill="#7CCC6C" x="1204" y="0" width="76" height="76"></rect>
            <rect id="Rectangle" fill="#C4E48C" x="1376" y="0" width="76" height="76"></rect>
            <rect id="Rectangle" fill="#C4E48C" x="1548" y="0" width="76" height="76"></rect>
            <rect id="Rectangle" fill="#C4E48C" x="1462" y="0" width="76" height="76"></rect>
            <rect id="Rectangle" fill="#C4E48C" x="1634" y="0" width="76" height="76"></rect>
            <rect id="Rectangle" fill="#7CCC6C" x="1806" y="0" width="76" height="76"></rect>
            <rect id="Rectangle" fill="#C4E48C" x="1720" y="0" width="76" height="76"></rect>
            <rect id="Rectangle" fill="#7CCC6C" x="172" y="0" width="76" height="76"></rect>
            <rect id="Rectangle" fill="#C4E48C" x="86" y="0" width="76" height="76"></rect>
            <rect id="Rectangle" fill="#C4E48C" x="0" y="0" width="76" height="76"></rect>
            <rect id="Rectangle" fill="#C4E48C" x="344" y="0" width="76" height="76"></rect>
            <rect id="Rectangle" fill="#C4E48C" x="258" y="0" width="76" height="76"></rect>
            <rect id="Rectangle" fill="#7CCC6C" x="430" y="0" width="76" height="76"></rect>
            <rect id="Rectangle" fill="#7CCC6C" x="602" y="0" width="76" height="76"></rect>
            <rect id="Rectangle" fill="#C4E48C" x="516" y="0" width="76" height="76"></rect>
            <rect id="Rectangle" fill="#C4E48C" x="688" y="0" width="76" height="76"></rect>
            <rect id="Rectangle" fill="#7CCC6C" x="860" y="0" width="76" height="76"></rect>
            <rect id="Rectangle" fill="#C4E48C" x="774" y="0" width="76" height="76"></rect>
            <rect id="Rectangle" fill="#7CCC6C" x="3010" y="0" width="76" height="76"></rect>
            <rect id="Rectangle" fill="#7CCC6C" x="2924" y="0" width="76" height="76"></rect>
            <rect id="Rectangle" fill="#7CCC6C" x="2838" y="0" width="76" height="76"></rect>
            <rect id="Rectangle" fill="#228F36" x="3182" y="0" width="76" height="76"></rect>
            <rect id="Rectangle" fill="#C4E48C" x="3096" y="0" width="76" height="76"></rect>
            <rect id="Rectangle" fill="#7CCC6C" x="3268" y="0" width="76" height="76"></rect>
            <rect id="Rectangle" fill="#C4E48C" x="3440" y="0" width="76" height="76"></rect>
            <rect id="Rectangle" fill="#C4E48C" x="3354" y="0" width="76" height="76"></rect>
            <rect id="Rectangle" fill="#C4E48C" x="3526" y="0" width="76" height="76"></rect>
            <rect id="Rectangle" fill="#C4E48C" x="3698" y="0" width="76" height="76"></rect>
            <rect id="Rectangle" fill="#C4E48C" x="3784" y="0" width="76" height="76"></rect>
            <rect id="Rectangle" fill="#228F36" x="3870" y="0" width="76" height="76"></rect>
            <rect id="Rectangle" fill="#7CCC6C" x="3956" y="0" width="76" height="76"></rect>
            <rect id="Rectangle" fill="#7CCC6C" x="4042" y="0" width="76" height="76"></rect>
            <rect id="Rectangle" fill="#C4E48C" x="4128" y="0" width="76" height="76"></rect>
            <rect id="Rectangle" fill="#7CCC6C" x="4214" y="0" width="76" height="76"></rect>
            <rect id="Rectangle" fill="#228F36" x="3612" y="0" width="76" height="76"></rect>
            <rect id="Rectangle" fill="#C4E48C" x="2064" y="0" width="76" height="76"></rect>
            <rect id="Rectangle" fill="#C4E48C" x="1978" y="0" width="76" height="76"></rect>
            <rect id="Rectangle" fill="#7CCC6C" x="1892" y="0" width="76" height="76"></rect>
            <rect id="Rectangle" fill="#C4E48C" x="2236" y="0" width="76" height="76"></rect>
            <rect id="Rectangle" fill="#228F36" x="2150" y="0" width="76" height="76"></rect>
            <rect id="Rectangle" fill="#C4E48C" x="2322" y="0" width="76" height="76"></rect>
            <rect id="Rectangle" fill="#7CCC6C" x="2494" y="0" width="76" height="76"></rect>
            <rect id="Rectangle" fill="#228F36" x="2408" y="0" width="76" height="76"></rect>
            <rect id="Rectangle" fill="#C4E48C" x="2580" y="0" width="76" height="76"></rect>
            <rect id="Rectangle" fill="#C4E48C" x="2752" y="1" width="76" height="76"></rect>
            <rect id="Rectangle" fill="#C4E48C" x="2666" y="0" width="76" height="76"></rect>
        </g>
        <g id="Row-3" transform="translate(5.000000, 1963.000000)">
            <rect id="Rectangle" fill="#C4E48C" x="1118" y="0" width="76" height="76"></rect>
            <rect id="Rectangle" fill="#7CCC6C" x="1032" y="0" width="76" height="76"></rect>
            <rect id="Rectangle" fill="#C4E48C" x="946" y="0" width="76" height="76"></rect>
            <rect id="Rectangle" fill="#7CCC6C" x="1290" y="0" width="76" height="76"></rect>
            <rect id="Rectangle" fill="#7CCC6C" x="1204" y="0" width="76" height="76"></rect>
            <rect id="Rectangle" fill="#7CCC6C" x="1376" y="0" width="76" height="76"></rect>
            <rect id="Rectangle" fill="#7CCC6C" x="1548" y="0" width="76" height="76"></rect>
            <rect id="Rectangle" fill="#C4E48C" x="1462" y="0" width="76" height="76"></rect>
            <rect id="Rectangle" fill="#7CCC6C" x="1634" y="0" width="76" height="76"></rect>
            <rect id="Rectangle" fill="#228F36" x="1806" y="0" width="76" height="76"></rect>
            <rect id="Rectangle" fill="#C4E48C" x="1720" y="0" width="76" height="76"></rect>
            <rect id="Rectangle" fill="#228F36" x="172" y="0" width="76" height="76"></rect>
            <rect id="Rectangle" fill="#7CCC6C" x="86" y="1" width="76" height="76"></rect>
            <rect id="Rectangle" fill="#C4E48C" x="0" y="0" width="76" height="76"></rect>
            <rect id="Rectangle" fill="#228F36" x="344" y="0" width="76" height="76"></rect>
            <rect id="Rectangle" fill="#7CCC6C" x="258" y="0" width="76" height="76"></rect>
            <rect id="Rectangle" fill="#228F36" x="430" y="0" width="76" height="76"></rect>
            <rect id="Rectangle" fill="#C4E48C" x="602" y="0" width="76" height="76"></rect>
            <rect id="Rectangle" fill="#C4E48C" x="516" y="0" width="76" height="76"></rect>
            <rect id="Rectangle" fill="#C4E48C" x="688" y="0" width="76" height="76"></rect>
            <rect id="Rectangle" fill="#228F36" x="860" y="0" width="76" height="76"></rect>
            <rect id="Rectangle" fill="#C4E48C" x="774" y="0" width="76" height="76"></rect>
            <rect id="Rectangle" fill="#C4E48C" x="3010" y="0" width="76" height="76"></rect>
            <rect id="Rectangle" fill="#C4E48C" x="2924" y="0" width="76" height="76"></rect>
            <rect id="Rectangle" fill="#7CCC6C" x="2838" y="0" width="76" height="76"></rect>
            <rect id="Rectangle" fill="#C4E48C" x="3182" y="0" width="76" height="76"></rect>
            <rect id="Rectangle" fill="#C4E48C" x="3096" y="0" width="76" height="76"></rect>
            <rect id="Rectangle" fill="#7CCC6C" x="3268" y="0" width="76" height="76"></rect>
            <rect id="Rectangle" fill="#C4E48C" x="3440" y="0" width="76" height="76"></rect>
            <rect id="Rectangle" fill="#C4E48C" x="3354" y="0" width="76" height="76"></rect>
            <rect id="Rectangle" fill="#C4E48C" x="3526" y="0" width="76" height="76"></rect>
            <rect id="Rectangle" fill="#C4E48C" x="3698" y="0" width="76" height="76"></rect>
            <rect id="Rectangle" fill="#C4E48C" x="3784" y="0" width="76" height="76"></rect>
            <rect id="Rectangle" fill="#C4E48C" x="3870" y="0" width="76" height="76"></rect>
            <rect id="Rectangle" fill="#C4E48C" x="3956" y="0" width="76" height="76"></rect>
            <rect id="Rectangle" fill="#228F36" x="4042" y="0" width="76" height="76"></rect>
            <rect id="Rectangle" fill="#228F36" x="4128" y="0" width="76" height="76"></rect>
            <rect id="Rectangle" fill="#C4E48C" x="4214" y="0" width="76" height="76"></rect>
            <rect id="Rectangle" fill="#228F36" x="3612" y="0" width="76" height="76"></rect>
            <rect id="Rectangle" fill="#C4E48C" x="2064" y="0" width="76" height="76"></rect>
            <rect id="Rectangle" fill="#7CCC6C" x="1978" y="0" width="76" height="76"></rect>
            <rect id="Rectangle" fill="#C4E48C" x="1892" y="0" width="76" height="76"></rect>
            <rect id="Rectangle" fill="#228F36" x="2236" y="0" width="76" height="76"></rect>
            <rect id="Rectangle" fill="#7CCC6C" x="2150" y="0" width="76" height="76"></rect>
            <rect id="Rectangle" fill="#C4E48C" x="2322" y="0" width="76" height="76"></rect>
            <rect id="Rectangle" fill="#7CCC6C" x="2494" y="0" width="76" height="76"></rect>
            <rect id="Rectangle" fill="#C4E48C" x="2408" y="0" width="76" height="76"></rect>
            <rect id="Rectangle" fill="#C4E48C" x="2580" y="0" width="76" height="76"></rect>
            <rect id="Rectangle" fill="#C4E48C" x="2752" y="1" width="76" height="76"></rect>
            <rect id="Rectangle" fill="#228F36" x="2666" y="0" width="76" height="76"></rect>
        </g>
        <g id="Row-4" transform="translate(5.000000, 1876.000000)">
            <rect id="Rectangle" fill="#228F36" x="1118" y="0" width="76" height="76"></rect>
            <rect id="Rectangle" fill="#C4E48C" x="1032" y="0" width="76" height="76"></rect>
            <rect id="Rectangle" fill="#C4E48C" x="946" y="0" width="76" height="76"></rect>
            <rect id="Rectangle" fill="#7CCC6C" x="1290" y="0" width="76" height="76"></rect>
            <rect id="Rectangle" fill="#228F36" x="1204" y="0" width="76" height="76"></rect>
            <rect id="Rectangle" fill="#228F36" x="1376" y="0" width="76" height="76"></rect>
            <rect id="Rectangle" fill="#228F36" x="1548" y="0" width="76" height="76"></rect>
            <rect id="Rectangle" fill="#7CCC6C" x="1462" y="0" width="76" height="76"></rect>
            <rect id="Rectangle" fill="#7CCC6C" x="1634" y="0" width="76" height="76"></rect>
            <rect id="Rectangle" fill="#7CCC6C" x="1806" y="0" width="76" height="76"></rect>
            <rect id="Rectangle" fill="#C4E48C" x="1720" y="0" width="76" height="76"></rect>
            <rect id="Rectangle" fill="#C4E48C" x="172" y="0" width="76" height="76"></rect>
            <rect id="Rectangle" fill="#C4E48C" x="86" y="0" width="76" height="76"></rect>
            <rect id="Rectangle" fill="#228F36" x="0" y="0" width="76" height="76"></rect>
            <rect id="Rectangle" fill="#228F36" x="344" y="0" width="76" height="76"></rect>
            <rect id="Rectangle" fill="#C4E48C" x="258" y="0" width="76" height="76"></rect>
            <rect id="Rectangle" fill="#228F36" x="430" y="0" width="76" height="76"></rect>
            <rect id="Rectangle" fill="#C4E48C" x="602" y="0" width="76" height="76"></rect>
            <rect id="Rectangle" fill="#C4E48C" x="516" y="0" width="76" height="76"></rect>
            <rect id="Rectangle" fill="#C4E48C" x="688" y="0" width="76" height="76"></rect>
            <rect id="Rectangle" fill="#7CCC6C" x="860" y="0" width="76" height="76"></rect>
            <rect id="Rectangle" fill="#228F36" x="774" y="0" width="76" height="76"></rect>
            <rect id="Rectangle" fill="#C4E48C" x="3010" y="0" width="76" height="76"></rect>
            <rect id="Rectangle" fill="#C4E48C" x="2924" y="0" width="76" height="76"></rect>
            <rect id="Rectangle" fill="#7CCC6C" x="2838" y="0" width="76" height="76"></rect>
            <rect id="Rectangle" fill="#C4E48C" x="3182" y="0" width="76" height="76"></rect>
            <rect id="Rectangle" fill="#C4E48C" x="3096" y="0" width="76" height="76"></rect>
            <rect id="Rectangle" fill="#7CCC6C" x="3268" y="0" width="76" height="76"></rect>
            <rect id="Rectangle" fill="#C4E48C" x="3440" y="0" width="76" height="76"></rect>
            <rect id="Rectangle" fill="#C4E48C" x="3354" y="0" width="76" height="76"></rect>
            <rect id="Rectangle" fill="#C4E48C" x="3526" y="0" width="76" height="76"></rect>
            <rect id="Rectangle" fill="#C4E48C" x="3698" y="0" width="76" height="76"></rect>
            <rect id="Rectangle" fill="#C4E48C" x="3784" y="0" width="76" height="76"></rect>
            <rect id="Rectangle" fill="#C4E48C" x="3870" y="0" width="76" height="76"></rect>
            <rect id="Rectangle" fill="#C4E48C" x="3956" y="0" width="76" height="76"></rect>
            <rect id="Rectangle" fill="#C4E48C" x="4042" y="0" width="76" height="76"></rect>
            <rect id="Rectangle" fill="#7CCC6C" x="4128" y="0" width="76" height="76"></rect>
            <rect id="Rectangle" fill="#228F36" x="4214" y="0" width="76" height="76"></rect>
            <rect id="Rectangle" fill="#C4E48C" x="3612" y="0" width="76" height="76"></rect>
            <rect id="Rectangle" fill="#C4E48C" x="2064" y="0" width="76" height="76"></rect>
            <rect id="Rectangle" fill="#C4E48C" x="1978" y="0" width="76" height="76"></rect>
            <rect id="Rectangle" fill="#C4E48C" x="1892" y="0" width="76" height="76"></rect>
            <rect id="Rectangle" fill="#C4E48C" x="2236" y="0" width="76" height="76"></rect>
            <rect id="Rectangle" fill="#228F36" x="2150" y="0" width="76" height="76"></rect>
            <rect id="Rectangle" fill="#C4E48C" x="2322" y="0" width="76" height="76"></rect>
            <rect id="Rectangle" fill="#C4E48C" x="2494" y="0" width="76" height="76"></rect>
            <rect id="Rectangle" fill="#C4E48C" x="2408" y="0" width="76" height="76"></rect>
            <rect id="Rectangle" fill="#C4E48C" x="2580" y="0" width="76" height="76"></rect>
            <rect id="Rectangle" fill="#C4E48C" x="2752" y="1" width="76" height="76"></rect>
            <rect id="Rectangle" fill="#7CCC6C" x="2666" y="0" width="76" height="76"></rect>
        </g>
        <g id="Row-5" transform="translate(5.000000, 1789.000000)">
            <rect id="Rectangle" fill="#C4E48C" x="1118" y="0" width="76" height="76"></rect>
            <rect id="Rectangle" fill="#7CCC6C" x="1032" y="0" width="76" height="76"></rect>
            <rect id="Rectangle" fill="#C4E48C" x="946" y="0" width="76" height="76"></rect>
            <rect id="Rectangle" fill="#7CCC6C" x="1290" y="0" width="76" height="76"></rect>
            <rect id="Rectangle" fill="#7CCC6C" x="1204" y="0" width="76" height="76"></rect>
            <rect id="Rectangle" fill="#228F36" x="1376" y="0" width="76" height="76"></rect>
            <rect id="Rectangle" fill="#C4E48C" x="1548" y="0" width="76" height="76"></rect>
            <rect id="Rectangle" fill="#C4E48C" x="1462" y="0" width="76" height="76"></rect>
            <rect id="Rectangle" fill="#7CCC6C" x="1634" y="0" width="76" height="76"></rect>
            <rect id="Rectangle" fill="#7CCC6C" x="1806" y="0" width="76" height="76"></rect>
            <rect id="Rectangle" fill="#7CCC6C" x="1720" y="0" width="76" height="76"></rect>
            <rect id="Rectangle" fill="#C4E48C" x="172" y="0" width="76" height="76"></rect>
            <rect id="Rectangle" fill="#228F36" x="86" y="0" width="76" height="76"></rect>
            <rect id="Rectangle" fill="#7CCC6C" x="0" y="0" width="76" height="76"></rect>
            <rect id="Rectangle" fill="#C4E48C" x="344" y="0" width="76" height="76"></rect>
            <rect id="Rectangle" fill="#C4E48C" x="258" y="0" width="76" height="76"></rect>
            <rect id="Rectangle" fill="#228F36" x="430" y="0" width="76" height="76"></rect>
            <rect id="Rectangle" fill="#7CCC6C" x="602" y="0" width="76" height="76"></rect>
            <rect id="Rectangle" fill="#7CCC6C" x="516" y="0" width="76" height="76"></rect>
            <rect id="Rectangle" fill="#7CCC6C" x="688" y="0" width="76" height="76"></rect>
            <rect id="Rectangle" fill="#C4E48C" x="860" y="0" width="76" height="76"></rect>
            <rect id="Rectangle" fill="#7CCC6C" x="774" y="0" width="76" height="76"></rect>
            <rect id="Rectangle" fill="#C4E48C" x="3010" y="0" width="76" height="76"></rect>
            <rect id="Rectangle" fill="#C4E48C" x="2924" y="0" width="76" height="76"></rect>
            <rect id="Rectangle" fill="#C4E48C" x="2838" y="0" width="76" height="76"></rect>
            <rect id="Rectangle" fill="#C4E48C" x="3182" y="0" width="76" height="76"></rect>
            <rect id="Rectangle" fill="#7CCC6C" x="3096" y="0" width="76" height="76"></rect>
            <rect id="Rectangle" fill="#C4E48C" x="3268" y="0" width="76" height="76"></rect>
            <rect id="Rectangle" fill="#C4E48C" x="3440" y="0" width="76" height="76"></rect>
            <rect id="Rectangle" fill="#7CCC6C" x="3354" y="0" width="76" height="76"></rect>
            <rect id="Rectangle" fill="#C4E48C" x="3526" y="0" width="76" height="76"></rect>
            <rect id="Rectangle" fill="#7CCC6C" x="3698" y="0" width="76" height="76"></rect>
            <rect id="Rectangle" fill="#C4E48C" x="3784" y="0" width="76" height="76"></rect>
            <rect id="Rectangle" fill="#C4E48C" x="3870" y="0" width="76" height="76"></rect>
            <rect id="Rectangle" fill="#7CCC6C" x="3956" y="0" width="76" height="76"></rect>
            <rect id="Rectangle" fill="#7CCC6C" x="4042" y="0" width="76" height="76"></rect>
            <rect id="Rectangle" fill="#228F36" x="4128" y="0" width="76" height="76"></rect>
            <rect id="Rectangle" fill="#228F36" x="4214" y="0" width="76" height="76"></rect>
            <rect id="Rectangle" fill="#C4E48C" x="3612" y="0" width="76" height="76"></rect>
            <rect id="Rectangle" fill="#C4E48C" x="2064" y="0" width="76" height="76"></rect>
            <rect id="Rectangle" fill="#C4E48C" x="1978" y="0" width="76" height="76"></rect>
            <rect id="Rectangle" fill="#C4E48C" x="1892" y="0" width="76" height="76"></rect>
            <rect id="Rectangle" fill="#C4E48C" x="2236" y="0" width="76" height="76"></rect>
            <rect id="Rectangle" fill="#C4E48C" x="2150" y="0" width="76" height="76"></rect>
            <rect id="Rectangle" fill="#C4E48C" x="2322" y="0" width="76" height="76"></rect>
            <rect id="Rectangle" fill="#C4E48C" x="2494" y="0" width="76" height="76"></rect>
            <rect id="Rectangle" fill="#7CCC6C" x="2408" y="0" width="76" height="76"></rect>
            <rect id="Rectangle" fill="#C4E48C" x="2580" y="0" width="76" height="76"></rect>
            <rect id="Rectangle" fill="#7CCC6C" x="2752" y="1" width="76" height="76"></rect>
            <rect id="Rectangle" fill="#7CCC6C" x="2666" y="0" width="76" height="76"></rect>
        </g>
        <g id="Row-6" transform="translate(5.000000, 1702.000000)">
            <rect id="Rectangle" fill="#C4E48C" x="1118" y="0" width="76" height="76"></rect>
            <rect id="Rectangle" fill="#7CCC6C" x="1032" y="0" width="76" height="76"></rect>
            <rect id="Rectangle" fill="#C4E48C" x="946" y="0" width="76" height="76"></rect>
            <rect id="Rectangle" fill="#7CCC6C" x="1290" y="0" width="76" height="76"></rect>
            <rect id="Rectangle" fill="#7CCC6C" x="1204" y="0" width="76" height="76"></rect>
            <rect id="Rectangle" fill="#C4E48C" x="1376" y="0" width="76" height="76"></rect>
            <rect id="Rectangle" fill="#228F36" x="1548" y="0" width="76" height="76"></rect>
            <rect id="Rectangle" fill="#C4E48C" x="1462" y="0" width="76" height="76"></rect>
            <rect id="Rectangle" fill="#228F36" x="1634" y="0" width="76" height="76"></rect>
            <rect id="Rectangle" fill="#C4E48C" x="1806" y="0" width="76" height="76"></rect>
            <rect id="Rectangle" fill="#C4E48C" x="1720" y="0" width="76" height="76"></rect>
            <rect id="Rectangle" fill="#C4E48C" x="172" y="0" width="76" height="76"></rect>
            <rect id="Rectangle" fill="#7CCC6C" x="86" y="0" width="76" height="76"></rect>
            <rect id="Rectangle" fill="#C4E48C" x="0" y="0" width="76" height="76"></rect>
            <rect id="Rectangle" fill="#228F36" x="344" y="0" width="76" height="76"></rect>
            <rect id="Rectangle" fill="#C4E48C" x="258" y="0" width="76" height="76"></rect>
            <rect id="Rectangle" fill="#7CCC6C" x="430" y="0" width="76" height="76"></rect>
            <rect id="Rectangle" fill="#7CCC6C" x="602" y="0" width="76" height="76"></rect>
            <rect id="Rectangle" fill="#7CCC6C" x="516" y="0" width="76" height="76"></rect>
            <rect id="Rectangle" fill="#C4E48C" x="688" y="0" width="76" height="76"></rect>
            <rect id="Rectangle" fill="#C4E48C" x="860" y="0" width="76" height="76"></rect>
            <rect id="Rectangle" fill="#C4E48C" x="774" y="0" width="76" height="76"></rect>
            <rect id="Rectangle" fill="#7CCC6C" x="3010" y="0" width="76" height="76"></rect>
            <rect id="Rectangle" fill="#C4E48C" x="2924" y="0" width="76" height="76"></rect>
            <rect id="Rectangle" fill="#C4E48C" x="2838" y="0" width="76" height="76"></rect>
            <rect id="Rectangle" fill="#C4E48C" x="3182" y="0" width="76" height="76"></rect>
            <rect id="Rectangle" fill="#7CCC6C" x="3096" y="0" width="76" height="76"></rect>
            <rect id="Rectangle" fill="#7CCC6C" x="3268" y="0" width="76" height="76"></rect>
            <rect id="Rectangle" fill="#C4E48C" x="3440" y="0" width="76" height="76"></rect>
            <rect id="Rectangle" fill="#C4E48C" x="3354" y="0" width="76" height="76"></rect>
            <rect id="Rectangle" fill="#C4E48C" x="3526" y="0" width="76" height="76"></rect>
            <rect id="Rectangle" fill="#C4E48C" x="3698" y="0" width="76" height="76"></rect>
            <rect id="Rectangle" fill="#C4E48C" x="3784" y="0" width="76" height="76"></rect>
            <rect id="Rectangle" fill="#C4E48C" x="3870" y="0" width="76" height="76"></rect>
            <rect id="Rectangle" fill="#C4E48C" x="3956" y="0" width="76" height="76"></rect>
            <rect id="Rectangle" fill="#C4E48C" x="4042" y="0" width="76" height="76"></rect>
            <rect id="Rectangle" fill="#7CCC6C" x="4128" y="0" width="76" height="76"></rect>
            <rect id="Rectangle" fill="#228F36" x="4214" y="0" width="76" height="76"></rect>
            <rect id="Rectangle" fill="#C4E48C" x="3612" y="0" width="76" height="76"></rect>
            <rect id="Rectangle" fill="#7CCC6C" x="2064" y="0" width="76" height="76"></rect>
            <rect id="Rectangle" fill="#C4E48C" x="1978" y="0" width="76" height="76"></rect>
            <rect id="Rectangle" fill="#C4E48C" x="1892" y="0" width="76" height="76"></rect>
            <rect id="Rectangle" fill="#C4E48C" x="2236" y="0" width="76" height="76"></rect>
            <rect id="Rectangle" fill="#C4E48C" x="2150" y="0" width="76" height="76"></rect>
            <rect id="Rectangle" fill="#C4E48C" x="2322" y="0" width="76" height="76"></rect>
            <rect id="Rectangle" fill="#C4E48C" x="2494" y="0" width="76" height="76"></rect>
            <rect id="Rectangle" fill="#C4E48C" x="2408" y="0" width="76" height="76"></rect>
            <rect id="Rectangle" fill="#C4E48C" x="2580" y="0" width="76" height="76"></rect>
            <rect id="Rectangle" fill="#C4E48C" x="2752" y="1" width="76" height="76"></rect>
            <rect id="Rectangle" fill="#C4E48C" x="2666" y="0" width="76" height="76"></rect>
        </g>
        <g id="Row-7" transform="translate(5.000000, 1615.000000)">
            <rect id="Rectangle" fill="#C4E48C" x="1118" y="0" width="76" height="76"></rect>
            <rect id="Rectangle" fill="#7CCC6C" x="1032" y="0" width="76" height="76"></rect>
            <rect id="Rectangle" fill="#228F36" x="946" y="0" width="76" height="76"></rect>
            <rect id="Rectangle" fill="#C4E48C" x="1290" y="0" width="76" height="76"></rect>
            <rect id="Rectangle" fill="#C4E48C" x="1204" y="0" width="76" height="76"></rect>
            <rect id="Rectangle" fill="#7CCC6C" x="1376" y="0" width="76" height="76"></rect>
            <rect id="Rectangle" fill="#228F36" x="1548" y="0" width="76" height="76"></rect>
            <rect id="Rectangle" fill="#C4E48C" x="1462" y="0" width="76" height="76"></rect>
            <rect id="Rectangle" fill="#7CCC6C" x="1634" y="0" width="76" height="76"></rect>
            <rect id="Rectangle" fill="#C4E48C" x="1806" y="0" width="76" height="76"></rect>
            <rect id="Rectangle" fill="#C4E48C" x="1720" y="0" width="76" height="76"></rect>
            <rect id="Rectangle" fill="#C4E48C" x="172" y="0" width="76" height="76"></rect>
            <rect id="Rectangle" fill="#7CCC6C" x="86" y="0" width="76" height="76"></rect>
            <rect id="Rectangle" fill="#7CCC6C" x="0" y="0" width="76" height="76"></rect>
            <rect id="Rectangle" fill="#228F36" x="344" y="0" width="76" height="76"></rect>
            <rect id="Rectangle" fill="#7CCC6C" x="258" y="0" width="76" height="76"></rect>
            <rect id="Rectangle" fill="#7CCC6C" x="430" y="0" width="76" height="76"></rect>
            <rect id="Rectangle" fill="#C4E48C" x="602" y="0" width="76" height="76"></rect>
            <rect id="Rectangle" fill="#7CCC6C" x="516" y="0" width="76" height="76"></rect>
            <rect id="Rectangle" fill="#C4E48C" x="688" y="0" width="76" height="76"></rect>
            <rect id="Rectangle" fill="#C4E48C" x="860" y="0" width="76" height="76"></rect>
            <rect id="Rectangle" fill="#C4E48C" x="774" y="0" width="76" height="76"></rect>
            <rect id="Rectangle" fill="#C4E48C" x="3010" y="0" width="76" height="76"></rect>
            <rect id="Rectangle" fill="#C4E48C" x="2924" y="0" width="76" height="76"></rect>
            <rect id="Rectangle" fill="#C4E48C" x="2838" y="0" width="76" height="76"></rect>
            <rect id="Rectangle" fill="#C4E48C" x="3182" y="0" width="76" height="76"></rect>
            <rect id="Rectangle" fill="#C4E48C" x="3096" y="0" width="76" height="76"></rect>
            <rect id="Rectangle" fill="#C4E48C" x="3268" y="0" width="76" height="76"></rect>
            <rect id="Rectangle" fill="#C4E48C" x="3440" y="0" width="76" height="76"></rect>
            <rect id="Rectangle" fill="#C4E48C" x="3354" y="0" width="76" height="76"></rect>
            <rect id="Rectangle" fill="#C4E48C" x="3526" y="0" width="76" height="76"></rect>
            <rect id="Rectangle" fill="#7CCC6C" x="3698" y="0" width="76" height="76"></rect>
            <rect id="Rectangle" fill="#C4E48C" x="3784" y="0" width="76" height="76"></rect>
            <rect id="Rectangle" fill="#C4E48C" x="3870" y="0" width="76" height="76"></rect>
            <rect id="Rectangle" fill="#C4E48C" x="3956" y="0" width="76" height="76"></rect>
            <rect id="Rectangle" fill="#C4E48C" x="4042" y="0" width="76" height="76"></rect>
            <rect id="Rectangle" fill="#7CCC6C" x="4128" y="0" width="76" height="76"></rect>
            <rect id="Rectangle" fill="#228F36" x="4214" y="0" width="76" height="76"></rect>
            <rect id="Rectangle" fill="#C4E48C" x="3612" y="0" width="76" height="76"></rect>
            <rect id="Rectangle" fill="#7CCC6C" x="2064" y="0" width="76" height="76"></rect>
            <rect id="Rectangle" fill="#C4E48C" x="1978" y="0" width="76" height="76"></rect>
            <rect id="Rectangle" fill="#C4E48C" x="1892" y="0" width="76" height="76"></rect>
            <rect id="Rectangle" fill="#C4E48C" x="2236" y="0" width="76" height="76"></rect>
            <rect id="Rectangle" fill="#C4E48C" x="2150" y="0" width="76" height="76"></rect>
            <rect id="Rectangle" fill="#C4E48C" x="2322" y="0" width="76" height="76"></rect>
            <rect id="Rectangle" fill="#228F36" x="2494" y="0" width="76" height="76"></rect>
            <rect id="Rectangle" fill="#7CCC6C" x="2408" y="0" width="76" height="76"></rect>
            <rect id="Rectangle" fill="#7CCC6C" x="2580" y="0" width="76" height="76"></rect>
            <rect id="Rectangle" fill="#C4E48C" x="2752" y="1" width="76" height="76"></rect>
            <rect id="Rectangle" fill="#C4E48C" x="2666" y="0" width="76" height="76"></rect>
        </g>
        <g id="Field" transform="translate(5.000000, 0.000000)">
            <rect id="Rectangle" fill="#7CCC6C" x="1118" y="1528" width="76" height="76"></rect>
            <rect id="Rectangle" fill="#7CCC6C" x="1042" y="1248" width="76" height="76"></rect>
            <rect id="Rectangle" fill="#C4E48C" x="946" y="1528" width="76" height="76"></rect>
            <rect id="Rectangle" fill="#C4E48C" x="1300" y="1324" width="76" height="76"></rect>
            <rect id="Rectangle" fill="#C4E48C" x="1214" y="1438" width="76" height="76"></rect>
            <rect id="Rectangle" fill="#C4E48C" x="1376" y="1528" width="76" height="76"></rect>
            <rect id="Rectangle" fill="#C4E48C" x="1548" y="1528" width="76" height="76"></rect>
            <rect id="Rectangle" fill="#C4E48C" x="1472" y="727" width="76" height="76"></rect>
            <rect id="Rectangle" fill="#C4E48C" x="1634" y="1528" width="76" height="76"></rect>
            <rect id="Rectangle" fill="#C4E48C" x="1816" y="1022" width="76" height="76"></rect>
            <rect id="Rectangle" fill="#C4E48C" x="1720" y="1528" width="76" height="76"></rect>
            <rect id="Rectangle" fill="#C4E48C" x="172" y="1528" width="76" height="76"></rect>
            <rect id="Rectangle" fill="#C4E48C" x="110" y="1150" width="76" height="76"></rect>
            <rect id="Rectangle" fill="#7CCC6C" x="0" y="1528" width="76" height="76"></rect>
            <rect id="Rectangle" fill="#7CCC6C" x="354" y="1302" width="76" height="76"></rect>
            <rect id="Rectangle" fill="#7CCC6C" x="268" y="1302" width="76" height="76"></rect>
            <rect id="Rectangle" fill="#7CCC6C" x="440" y="1188" width="76" height="76"></rect>
            <rect id="Rectangle" fill="#C4E48C" x="612" y="1302" width="76" height="76"></rect>
            <rect id="Rectangle" fill="#C4E48C" x="516" y="1528" width="76" height="76"></rect>
            <rect id="Rectangle" fill="#C4E48C" x="688" y="1528" width="76" height="76"></rect>
            <rect id="Rectangle" fill="#C4E48C" x="870" y="1151" width="76" height="76"></rect>
            <rect id="Rectangle" fill="#C4E48C" x="774" y="1528" width="76" height="76"></rect>
            <rect id="Rectangle" fill="#C4E48C" x="3010" y="1528" width="76" height="76"></rect>
            <rect id="Rectangle" fill="#C4E48C" x="3086" y="1324" width="76" height="76"></rect>
            <rect id="Rectangle" fill="#C4E48C" x="2838" y="1528" width="76" height="76"></rect>
            <rect id="Rectangle" fill="#C4E48C" x="3192" y="879" width="76" height="76"></rect>
            <rect id="Rectangle" fill="#C4E48C" x="3096" y="1528" width="76" height="76"></rect>
            <rect id="Rectangle" fill="#C4E48C" x="3268" y="1528" width="76" height="76"></rect>
            <rect id="Rectangle" fill="#C4E48C" x="3420" y="803" width="76" height="76"></rect>
            <rect id="Rectangle" fill="#7CCC6C" x="3344" y="1132" width="76" height="76"></rect>
            <rect id="Rectangle" fill="#C4E48C" x="3587" y="1264" width="76" height="76"></rect>
            <rect id="Rectangle" fill="#C4E48C" x="3746" y="1340" width="76" height="76"></rect>
            <rect id="Rectangle" fill="#C4E48C" x="4140" y="703" width="76" height="76"></rect>
            <rect id="Rectangle" fill="#C4E48C" x="3784" y="1528" width="76" height="76"></rect>
            <rect id="Rectangle" fill="#C4E48C" x="3880" y="1452" width="76" height="76"></rect>
            <rect id="Rectangle" fill="#C4E48C" x="3956" y="1528" width="76" height="76"></rect>
            <rect id="Rectangle" fill="#C4E48C" x="4011" y="1208" width="76" height="76"></rect>
            <rect id="Rectangle" fill="#C4E48C" x="4102" y="1400" width="76" height="76"></rect>
            <rect id="Rectangle" fill="#C4E48C" x="4214" y="1528" width="76" height="76"></rect>
            <rect id="Rectangle" fill="#C4E48C" x="3612" y="1528" width="76" height="76"></rect>
            <rect id="Rectangle" fill="#7CCC6C" x="2064" y="1528" width="76" height="76"></rect>
            <rect id="Rectangle" fill="#C4E48C" x="1988" y="665" width="76" height="76"></rect>
            <rect id="Rectangle" fill="#C4E48C" x="3268" y="312" width="76" height="76"></rect>
            <rect id="Rectangle" fill="#C4E48C" x="3268" y="312" width="76" height="76"></rect>
            <rect id="Rectangle" fill="#C4E48C" x="935" y="312" width="76" height="76"></rect>
            <rect id="Rectangle" fill="#C4E48C" x="1988" y="0" width="76" height="76"></rect>
            <rect id="Rectangle" fill="#7CCC6C" x="1892" y="1452" width="76" height="76"></rect>
            <rect id="Rectangle" fill="#C4E48C" x="2264" y="1075" width="76" height="76"></rect>
            <rect id="Rectangle" fill="#C4E48C" x="2158" y="1284" width="76" height="76"></rect>
            <rect id="Rectangle" fill="#C4E48C" x="2322" y="1528" width="76" height="76"></rect>
            <rect id="Rectangle" fill="#C4E48C" x="2494" y="1528" width="76" height="76"></rect>
            <rect id="Rectangle" fill="#7CCC6C" x="2408" y="1490" width="76" height="76"></rect>
            <rect id="Rectangle" fill="#C4E48C" x="2580" y="1528" width="76" height="76"></rect>
            <rect id="Rectangle" fill="#C4E48C" x="2816" y="1302" width="76" height="76"></rect>
            <rect id="Rectangle" fill="#C4E48C" x="2618" y="1302" width="76" height="76"></rect>
            <rect id="Rectangle" fill="#228F36" x="1157" y="956" width="76" height="76"></rect>
            <rect id="Rectangle" fill="#228F36" x="2226" y="879" width="76" height="76"></rect>
            <rect id="Rectangle" fill="#228F36" x="3010" y="1075" width="76" height="76"></rect>
            <rect id="Rectangle" fill="#228F36" x="3768" y="984" width="76" height="76"></rect>
            <rect id="Rectangle" fill="#228F36" x="13" y="665" width="76" height="76"></rect>
            <rect id="Rectangle" fill="#7CCC6C" x="1460" y="1078" width="76" height="76"></rect>
            <rect id="Rectangle" fill="#7CCC6C" x="2738" y="994" width="76" height="76"></rect>
            <rect id="Rectangle" fill="#7CCC6C" x="1902" y="1154" width="76" height="76"></rect>
            <rect id="Rectangle" fill="#7CCC6C" x="1546" y="994" width="76" height="76"></rect>
            <rect id="Rectangle" fill="#7CCC6C" x="1572" y="1349" width="76" height="76"></rect>
            <rect id="Rectangle" fill="#C4E48C" x="525" y="806" width="76" height="76"></rect>
            <rect id="Rectangle" fill="#C4E48C" x="786" y="1002" width="76" height="76"></rect>
            <rect id="Rectangle" fill="#C4E48C" x="319" y="1040" width="76" height="76"></rect>
        </g>
    </g>
</svg>