<svg id="Layer_1" data-name="Layer 1" xmlns="http://www.w3.org/2000/svg" viewBox="0 0 1000 647.33">
  <defs>
    <style>.cls-1{fill:#ffffff;}</style>
  </defs>
  <title>yola_logo</title>
  <polygon class="cls-1"
           points="658.93 516.21 658.89 516.24 598.64 516.24 598.61 516.21 598.61 0.04 598.65 0 658.9 0 658.93 0.03 658.93 516.21"/>
  <path class="cls-1"
        d="M554.47,270.14c-.86-41.56-13.42-73.94-37.37-96.29-22.26-20.78-52.61-31.32-90.19-31.32S359,153.07,336.73,173.85c-24,22.35-36.51,54.73-37.37,96.29h-.06V395.43h.06c.86,41.56,13.42,73.95,37.37,96.3C359,512.51,389.33,523,426.91,523s67.93-10.53,90.19-31.31c23.95-22.35,36.51-54.74,37.37-96.3h0V270.14ZM494.2,390.79c0,49.74-20.75,71.93-67.29,71.93s-67.28-22.19-67.28-71.93v-116c0-49.74,20.75-71.92,67.28-71.92S494.2,225,494.2,274.78Z"
        transform="translate(0 -1)"/>
  <path class="cls-1"
        d="M194.9,150.65V390.79c0,49.74-20.76,71.93-67.29,71.93s-67.29-22.19-67.29-71.93V150.68l0,0H0V395.43H.05c.87,41.56,13.43,73.95,37.37,96.3C59.69,512.51,90,523,127.61,523c27.18,0,51.7-12,71.21-29.78l-3.89-.32,0,23.14c0,49.74-20.76,74.25-67.29,74.25-43.48,0-59.73-19.94-63.61-28,0,0-.07,0-.07,0l-49,30.81v0c7.5,15.59,44.27,55.18,112.68,55.18h0c37.58,0,67.92-10.53,90.19-31.31,23.94-22.35,36.5-54.74,37.37-96.3h.05V150.65Z"
        transform="translate(0 -1)"/>
  <path class="cls-1"
        d="M965.2,390.79V270.14h-.06c-.86-41.56-13.42-73.94-37.37-96.29-22.26-20.78-52.6-31.32-90.18-31.32v.14c-68.4,0-105.16,39.42-112.67,55,0,0,0,0,0,.05l49,30.81s.06,0,.07,0c.54-1.2,13.15-26.82,63.61-26.82,46.53,0,67.28,23.34,67.28,73.08v4.35h0c-17.94-12.41-40.25-20.59-67.31-20.59h-9.28c-37.58,0-67.93,10.54-90.19,31.31-24,22.36-36.51,54.74-37.37,96.3h0v9.28h0c.86,41.56,13.42,73.95,37.37,96.3C760.38,512.51,790.73,523,828.31,523h9.28c37.59,0,66.15-15.94,86.47-36.95,0,.05-.35,0-.32,0a71.35,71.35,0,0,0,9.06,11.17C955.19,519.68,983,523,999.93,523l.07-.07V462.75s0,0,0,0C970.41,462.7,965.2,443.55,965.2,390.79ZM837.59,462.72h-9.28c-46.54,0-67.29-22.19-67.29-71.93s20.75-71.92,67.29-71.92h9.28c46.53,0,67.28,22.18,67.28,71.92S884.12,462.72,837.59,462.72Z"
        transform="translate(0 -1)"/>
</svg>
