<?xml version="1.0" encoding="UTF-8"?>
<svg width="1396px" height="607px" viewBox="0 0 1396 607" version="1.1" xmlns="http://www.w3.org/2000/svg" xmlns:xlink="http://www.w3.org/1999/xlink">
    <!-- Generator: Sketch 58 (84663) - https://sketch.com -->
    <title>thunk</title>
    <desc>Created with Sketch.</desc>
    <defs>
        <linearGradient x1="27.9442579%" y1="31.2314034%" x2="57.4847375%" y2="65.0654841%" id="linearGradient-1">
            <stop stop-color="#AEFF98" offset="0%"></stop>
            <stop stop-color="#FFBC4C" offset="100%"></stop>
        </linearGradient>
        <rect id="path-2" x="0" y="0" width="1396" height="1110"></rect>
        <linearGradient x1="50%" y1="0%" x2="50%" y2="100%" id="linearGradient-4">
            <stop stop-color="#FF50F1" offset="0%"></stop>
            <stop stop-color="#FFD54E" offset="100%"></stop>
        </linearGradient>
        <linearGradient x1="50%" y1="0%" x2="50%" y2="97.3772321%" id="linearGradient-5">
            <stop stop-color="#FFEF50" offset="0%"></stop>
            <stop stop-color="#FF9E4E" offset="100%"></stop>
        </linearGradient>
        <linearGradient x1="42.8972214%" y1="27.680433%" x2="42.8972214%" y2="74.834648%" id="linearGradient-6">
            <stop stop-color="#2CA8FF" offset="0%"></stop>
            <stop stop-color="#4ECFFF" offset="100%"></stop>
        </linearGradient>
        <linearGradient x1="50%" y1="0%" x2="50%" y2="100%" id="linearGradient-7">
            <stop stop-color="#50EDFF" offset="0%"></stop>
            <stop stop-color="#4EF2FF" offset="100%"></stop>
        </linearGradient>
    </defs>
    <g id="Page-1" stroke="none" stroke-width="1" fill="none" fill-rule="evenodd">
        <g id="7">
            <g id="Path">
                <mask id="mask-3" fill="white">
                    <use xlink:href="#path-2"></use>
                </mask>
                <use id="Mask" fill="url(#linearGradient-1)" fill-rule="nonzero" xlink:href="#path-2"></use>
                <path d="M-1988.21303,135.848817 C-1616.28349,-518.423673 -1282.35471,-755.317558 -986.42668,-574.832837 C-542.534637,-304.105756 -149.896336,255.246015 369.457641,-239.906136 C888.811617,-735.058288 2083.26999,-266.858686 2422.24637,544.342995 C2648.23063,1085.14412 2022.44,1402.70457 544.874481,1497.02435 L-1464.24652,1085.73205 L-1988.21303,135.848817 Z" id="Path-5-Copy-3" fill="url(#linearGradient-4)" mask="url(#mask-3)" transform="translate(239.500111, 431.828503) rotate(-21.000000) translate(-239.500111, -431.828503) "></path>
                <path d="M-642.044287,448.455386 C-402.141502,251.289365 -208.991273,169.928073 -62.5935994,204.371509 C157.002911,256.036664 330.947121,389.032841 639.390606,227.912377 C947.834091,66.7919133 1555.25671,134.782245 1684.59745,339.194116 C1770.82461,475.468697 1416.87553,593.451358 622.750187,693.142099 L-422.82827,681.454931 L-642.044287,448.455386 Z" id="Path-5-Copy-2" fill="url(#linearGradient-5)" mask="url(#mask-3)" transform="translate(527.610798, 415.770669) rotate(17.000000) translate(-527.610798, -415.770669) "></path>
                <path d="M-484.467891,559.80566 C-268.698264,381.4453 -84.3926515,318.472251 68.4489454,370.886512 C297.711341,449.507905 491.907103,607.720334 781.959318,474.655118 C1072.01153,341.589902 1695.92201,480.999303 1854.756,708.589714 C1960.64532,860.316655 1618.64797,943.297035 828.763942,957.530855 L-230.784528,827.328586 L-484.467891,559.80566 Z" id="Path-5-Copy" fill="url(#linearGradient-6)" mask="url(#mask-3)" transform="translate(694.531932, 655.280314) rotate(-15.000000) translate(-694.531932, -655.280314) "></path>
                <path d="M-359.40599,919.078576 C-142.183458,745.727033 42.8569629,684.348223 195.715274,734.942147 C425.002739,810.833032 618.700831,963.981203 910.101808,834.444835 C1201.50279,704.908468 1825.90373,839.125959 1983.77454,1059.62555 C2089.02176,1206.62528 1745.85274,1287.66463 954.267505,1302.74361 L-106.71737,1178.15863 L-359.40599,919.078576 Z" id="Path-5" fill="url(#linearGradient-7)" mask="url(#mask-3)" transform="translate(821.447693, 1010.270217) rotate(-14.000000) translate(-821.447693, -1010.270217) "></path>
            </g>
        </g>
    </g>
</svg>