<?xml version="1.0" encoding="UTF-8"?>
<svg width="401px" height="402px" viewBox="0 0 401 402" version="1.1" xmlns="http://www.w3.org/2000/svg" xmlns:xlink="http://www.w3.org/1999/xlink">
    <!-- Generator: Sketch 58 (84663) - https://sketch.com -->
    <title>Untitled 3</title>
    <desc>Created with Sketch.</desc>
    <defs>
        <linearGradient x1="120.509966%" y1="-779.187951%" x2="-13.4749362%" y2="-779.187951%" id="linearGradient-1">
            <stop stop-color="#F9F9F9" offset="0%"></stop>
            <stop stop-color="#F2F2F2" offset="100%"></stop>
        </linearGradient>
        <radialGradient cx="49.3711848%" cy="101.111782%" fx="49.3711848%" fy="101.111782%" r="125.251358%" gradientTransform="translate(0.493712,1.011118),scale(0.448576,1.000000),rotate(-44.528041),translate(-0.493712,-1.011118)" id="radialGradient-2">
            <stop stop-color="#FFFFFF" offset="0%"></stop>
            <stop stop-color="#FFFFFF" stop-opacity="0" offset="100%"></stop>
        </radialGradient>
        <linearGradient x1="-11.8285882%" y1="-48.6146983%" x2="-11.8285882%" y2="170.137748%" id="linearGradient-3">
            <stop stop-color="#0088AA" offset="0%"></stop>
            <stop stop-color="#2AD4FF" offset="100%"></stop>
        </linearGradient>
        <linearGradient x1="-2188.62163%" y1="138.505634%" x2="-2188.62163%" y2="-4.29006452%" id="linearGradient-4">
            <stop stop-color="#0088AA" offset="0%"></stop>
            <stop stop-color="#00AAD4" offset="100%"></stop>
        </linearGradient>
        <linearGradient x1="-409.634663%" y1="23817.5429%" x2="-409.634663%" y2="23701.9826%" id="linearGradient-5">
            <stop stop-color="#0088AA" offset="0%"></stop>
            <stop stop-color="#00AAD4" offset="100%"></stop>
        </linearGradient>
        <linearGradient x1="77.2484469%" y1="-5402.20654%" x2="-69.5180335%" y2="-5402.20654%" id="linearGradient-6">
            <stop stop-color="#ECECEC" stop-opacity="0" offset="0%"></stop>
            <stop stop-color="#FFFFFF" offset="100%"></stop>
        </linearGradient>
        <linearGradient x1="120.496632%" y1="-779.187951%" x2="-13.4616026%" y2="-779.187951%" id="linearGradient-7">
            <stop stop-color="#F9F9F9" offset="0%"></stop>
            <stop stop-color="#F2F2F2" offset="100%"></stop>
        </linearGradient>
        <radialGradient cx="49.3991937%" cy="101.111782%" fx="49.3991937%" fy="101.111782%" r="125.251358%" gradientTransform="translate(0.493992,1.011118),scale(0.448576,1.000000),rotate(-44.528041),translate(-0.493992,-1.011118)" id="radialGradient-8">
            <stop stop-color="#FFFFFF" offset="0%"></stop>
            <stop stop-color="#FFFFFF" stop-opacity="0" offset="100%"></stop>
        </radialGradient>
        <linearGradient x1="-11.8285882%" y1="-48.6146983%" x2="-11.8285882%" y2="170.137748%" id="linearGradient-9">
            <stop stop-color="#C837AB" offset="0%"></stop>
            <stop stop-color="#E9AFDD" offset="100%"></stop>
        </linearGradient>
        <linearGradient x1="-3858.18685%" y1="138.505634%" x2="-3858.18685%" y2="-4.29006452%" id="linearGradient-10">
            <stop stop-color="#C837AB" offset="0%"></stop>
            <stop stop-color="#DE87CD" offset="100%"></stop>
        </linearGradient>
        <linearGradient x1="-409.634663%" y1="23817.5429%" x2="-409.634663%" y2="23701.9826%" id="linearGradient-11">
            <stop stop-color="#C837AB" offset="0%"></stop>
            <stop stop-color="#DE87CD" offset="100%"></stop>
        </linearGradient>
        <linearGradient x1="77.2618994%" y1="-5402.20654%" x2="-69.5090503%" y2="-5402.20654%" id="linearGradient-12">
            <stop stop-color="#ECECEC" stop-opacity="0" offset="0%"></stop>
            <stop stop-color="#FFFFFF" offset="100%"></stop>
        </linearGradient>
        <linearGradient x1="733.637784%" y1="-779.527816%" x2="599.652882%" y2="-779.527816%" id="linearGradient-13">
            <stop stop-color="#F9F9F9" offset="0%"></stop>
            <stop stop-color="#F2F2F2" offset="100%"></stop>
        </linearGradient>
        <radialGradient cx="49.3641826%" cy="100.955684%" fx="49.3641826%" fy="100.955684%" r="125.251358%" gradientTransform="translate(0.493642,1.009557),scale(0.448576,1.000000),rotate(-44.528041),translate(-0.493642,-1.009557)" id="radialGradient-14">
            <stop stop-color="#FFFFFF" offset="0%"></stop>
            <stop stop-color="#FFFFFF" stop-opacity="0" offset="100%"></stop>
        </radialGradient>
        <linearGradient x1="-11.8285882%" y1="-48.6146983%" x2="-11.8285882%" y2="170.137748%" id="linearGradient-15">
            <stop stop-color="#D4AA00" offset="0%"></stop>
            <stop stop-color="#FFCC00" offset="100%"></stop>
        </linearGradient>
        <linearGradient x1="1650.03297%" y1="142.611269%" x2="1650.03297%" y2="-21.5177634%" id="linearGradient-16">
            <stop stop-color="#FFCC00" offset="0%"></stop>
            <stop stop-color="#FFE680" offset="100%"></stop>
        </linearGradient>
        <linearGradient x1="-409.634663%" y1="115.437737%" x2="-409.634663%" y2="-17.3869459%" id="linearGradient-17">
            <stop stop-color="#FFCC00" offset="0%"></stop>
            <stop stop-color="#FFE680" offset="100%"></stop>
        </linearGradient>
        <linearGradient x1="77.2468827%" y1="-5404.49205%" x2="-69.5195978%" y2="-5404.49205%" id="linearGradient-18">
            <stop stop-color="#ECECEC" stop-opacity="0" offset="0%"></stop>
            <stop stop-color="#FFFFFF" offset="100%"></stop>
        </linearGradient>
        <linearGradient x1="443.662207%" y1="-779.187951%" x2="309.677305%" y2="-779.187951%" id="linearGradient-19">
            <stop stop-color="#F9F9F9" offset="0%"></stop>
            <stop stop-color="#F2F2F2" offset="100%"></stop>
        </linearGradient>
        <radialGradient cx="49.3361738%" cy="101.111782%" fx="49.3361738%" fy="101.111782%" r="125.251358%" gradientTransform="translate(0.493362,1.011118),scale(0.448576,1.000000),rotate(-44.528041),translate(-0.493362,-1.011118)" id="radialGradient-20">
            <stop stop-color="#FFFFFF" offset="0%"></stop>
            <stop stop-color="#FFFFFF" stop-opacity="0" offset="100%"></stop>
        </radialGradient>
        <linearGradient x1="-11.8285882%" y1="-48.6146983%" x2="-11.8285882%" y2="170.137748%" id="linearGradient-21">
            <stop stop-color="#88AA00" offset="0%"></stop>
            <stop stop-color="#AAD400" offset="100%"></stop>
        </linearGradient>
        <linearGradient x1="-165.437774%" y1="138.505634%" x2="-165.437774%" y2="-4.29006452%" id="linearGradient-22">
            <stop stop-color="#88AA00" offset="0%"></stop>
            <stop stop-color="#AAD400" offset="100%"></stop>
        </linearGradient>
        <linearGradient x1="-409.634663%" y1="23817.5429%" x2="-409.634663%" y2="23701.9826%" id="linearGradient-23">
            <stop stop-color="#88AA00" offset="0%"></stop>
            <stop stop-color="#AAD400" offset="100%"></stop>
        </linearGradient>
        <linearGradient x1="77.2447821%" y1="-5402.20654%" x2="-69.5172291%" y2="-5402.20654%" id="linearGradient-24">
            <stop stop-color="#ECECEC" stop-opacity="0" offset="0%"></stop>
            <stop stop-color="#FFFFFF" offset="100%"></stop>
        </linearGradient>
        <linearGradient x1="120.505521%" y1="-779.187951%" x2="-13.4616026%" y2="-779.187951%" id="linearGradient-25">
            <stop stop-color="#F9F9F9" offset="0%"></stop>
            <stop stop-color="#F2F2F2" offset="100%"></stop>
        </linearGradient>
        <radialGradient cx="49.3781871%" cy="101.111782%" fx="49.3781871%" fy="101.111782%" r="125.251358%" gradientTransform="translate(0.493782,1.011118),scale(0.448576,1.000000),rotate(-44.528041),translate(-0.493782,-1.011118)" id="radialGradient-26">
            <stop stop-color="#FFFFFF" offset="0%"></stop>
            <stop stop-color="#FFFFFF" stop-opacity="0" offset="100%"></stop>
        </radialGradient>
        <linearGradient x1="-11.8285882%" y1="-48.6146983%" x2="-11.8285882%" y2="170.137748%" id="linearGradient-27">
            <stop stop-color="#D45500" offset="0%"></stop>
            <stop stop-color="#FF6600" offset="100%"></stop>
        </linearGradient>
        <linearGradient x1="3108.9536%" y1="138.505634%" x2="3108.9536%" y2="-4.29006452%" id="linearGradient-28">
            <stop stop-color="#D45500" offset="0%"></stop>
            <stop stop-color="#FF9955" offset="100%"></stop>
        </linearGradient>
        <linearGradient x1="-409.634663%" y1="23817.5429%" x2="-409.634663%" y2="23701.9826%" id="linearGradient-29">
            <stop stop-color="#D45500" offset="0%"></stop>
            <stop stop-color="#FF9955" offset="100%"></stop>
        </linearGradient>
        <linearGradient x1="77.2244022%" y1="-5402.20654%" x2="-69.5018547%" y2="-5402.20654%" id="linearGradient-30">
            <stop stop-color="#ECECEC" stop-opacity="0" offset="0%"></stop>
            <stop stop-color="#FFFFFF" offset="100%"></stop>
        </linearGradient>
    </defs>
    <g id="Page-1" stroke="none" stroke-width="1" fill="none" fill-rule="evenodd">
        <g id="tubes" transform="translate(200.500000, 201.000000) rotate(45.000000) translate(-200.500000, -201.000000) translate(46.000000, 72.000000)" fill-rule="nonzero">
            <g id="Group" transform="translate(192.300000, 1.286400)">
                <path d="M5.2706072,0.129552 C3.46387501,0.129552 1.96444016,1.56159822 1.96444016,3.368352 L1.96444016,12.949802 C1.96444016,14.3274364 2.85351235,15.4393596 4.05616516,15.918702 C4.06976812,88.3188372 3.99130279,160.721132 4.05616516,233.11263 C4.25198301,247.097552 19.6147126,257.775012 32.7994356,253.152813 C43.3022162,250.170526 49.6066484,239.009189 48.3862685,228.455883 L48.3862685,15.9776482 C49.6309178,15.5189693 50.5454685,14.3490068 50.5454685,12.9413811 L50.5454685,3.35993112 C50.5454685,1.55317734 49.1134007,0.12113112 47.3066685,0.12113112 L5.26920372,0.12113112 L5.2706072,0.129552 Z" id="Path" stroke="#F2F2F2" stroke-width="1.0796" fill="url(#linearGradient-1)"></path>
                <path d="M4.0571368,141.233272 C4.07073976,213.609656 3.99229602,160.757406 4.0571368,233.133142 C4.25295465,247.118065 19.6156842,257.795525 32.8004072,253.173325 C43.3031878,250.191038 49.60762,239.029702 48.3872402,228.476396 L48.3872402,141.231761 L4.0571368,141.233272 Z" id="Path" fill="#00AAD4"></path>
                <path d="M41.0334368,236.00056 C37.0944082,238.426637 31.9313292,239.91411 26.2563038,239.91411 C20.5812785,239.91411 15.4184154,238.494004 11.4791709,236.067927 C11.0681672,237.034385 10.8718959,238.045322 10.8718959,239.10441 C10.8718959,245.029255 17.7390156,249.832827 26.2561959,249.832827 C34.7733762,249.832827 41.7078629,245.029255 41.7078629,239.10441 C41.7078629,238.015525 41.4665291,236.990553 41.0331129,236.00056 L41.0334368,236.00056 Z" id="Path" fill="url(#radialGradient-2)" opacity="0.25"></path>
                <path d="M48.2883488,141.406008 C48.2883488,142.929626 38.4074178,144.164818 26.2191656,144.164818 C14.0309134,144.164818 4.1499824,142.929691 4.1499824,141.406008 C4.1499824,139.882325 14.0309134,138.647198 26.2191656,138.647198 C38.4074178,138.647198 48.2883488,139.882325 48.2883488,141.406008 Z" id="Path" fill="url(#linearGradient-3)"></path>
                <path d="M33.3943815,135.068065 C31.2531029,135.068065 29.4808315,136.772861 29.4808315,138.91414 C29.4808315,139.823703 29.8335584,140.681942 30.3580065,141.34324 L36.3632815,141.34324 C36.8877296,140.681942 37.2404565,139.823703 37.2404565,138.91414 C37.2404565,136.772861 35.5356602,135.068065 33.3943815,135.068065 Z" id="Path" fill="url(#linearGradient-4)"></path>
                <path d="M28.1583466,128.220275 C28.1583466,130.855787 26.0218677,132.992159 23.3864617,132.992159 C20.7510557,132.992159 18.6145769,130.855681 18.6145769,128.220275 C18.6145769,125.584869 20.7510557,123.44839 23.3864617,123.44839 C26.0218677,123.44839 28.1583466,125.584869 28.1583466,128.220275 Z" id="Path" fill="url(#linearGradient-5)"></path>
                <path d="M37.4023431,119.416682 C37.4023431,121.310919 35.8667793,122.846407 33.9726187,122.846407 C32.0784581,122.846407 30.5428943,121.310843 30.5428943,119.416682 C30.5428943,117.522522 32.0784581,115.986958 33.9726187,115.986958 C35.8667793,115.986958 37.4023431,117.522522 37.4023431,119.416682 Z" id="Path" fill="url(#linearGradient-5)"></path>
                <path d="M29.0512967,110.158049 C29.0512967,111.640493 27.8495534,112.842176 26.3671697,112.842176 C24.8847859,112.842176 23.6830426,111.640433 23.6830426,110.158049 C23.6830426,108.675665 24.8847859,107.473922 26.3671697,107.473922 C27.8495534,107.473922 29.0512967,108.675665 29.0512967,110.158049 Z" id="Path" fill="url(#linearGradient-5)"></path>
                <path d="M17.7183952,133.719256 C17.7183952,135.860556 15.9825495,137.596316 13.8413357,137.596316 C11.7001218,137.596316 9.96427616,135.86047 9.96427616,133.719256 C9.96427616,131.578042 11.7001218,129.842196 13.8413357,129.842196 C15.9825495,129.842196 17.7183952,131.578042 17.7183952,133.719256 Z" id="Path" fill="url(#linearGradient-5)"></path>
                <path d="M39.4910287,104.652089 C39.4910287,106.134533 38.2892854,107.336216 36.8069017,107.336216 C35.3245179,107.336216 34.1227746,106.134473 34.1227746,104.652089 C34.1227746,103.169705 35.3245179,101.967962 36.8069017,101.967962 C38.2892854,101.967962 39.4910287,103.169705 39.4910287,104.652089 Z" id="Path" fill="url(#linearGradient-5)"></path>
                <path d="M10.9989648,20.145336 C12.4802799,20.145336 13.681123,21.7964712 13.681123,23.8332496 L13.681123,229.00907 C13.681123,231.045849 12.4802799,232.696984 10.9989648,232.696984 C9.51764971,232.696984 8.31680656,231.045849 8.31680656,229.00907 L8.31680656,23.8332496 C8.31680656,21.7964712 9.51764971,20.145336 10.9989648,20.145336" id="Path" fill="#FFFFFF" opacity="0.2"></path>
                <path d="M2.10016747,13.9045571 C2.40660114,14.8209215 3.15495826,15.5692571 4.05694247,15.9288071 C4.05910167,27.5568764 4.05854028,39.1851832 4.05694247,50.8133821 C14.8016399,36.7762717 28.6649994,26.6375322 48.3880175,23.8233821 L48.3880175,15.9962821 C49.3418873,15.6447643 50.1092238,14.8784642 50.4122675,13.9045571 L2.10016747,13.9045571 Z" id="Path" fill="url(#linearGradient-6)"></path>
            </g>
            <g id="Group" transform="translate(256.387600, 1.286400)">
                <path d="M5.268448,0.129552 C3.46171581,0.129552 1.96228096,1.56159822 1.96228096,3.368352 L1.96228096,12.949802 C1.96228096,14.3274364 2.85135315,15.4393596 4.05400596,15.918702 C4.06696116,88.3188372 3.98922996,160.721132 4.05400596,233.11263 C4.2498454,247.097552 19.6125534,257.775012 32.7972764,253.152813 C43.300057,250.170526 49.6044892,239.009189 48.3841093,228.455883 L48.3841093,15.9776482 C49.6287586,15.5189693 50.5433093,14.3490068 50.5433093,12.9413811 L50.5433093,3.35993112 C50.5433093,1.55317734 49.1112415,0.12113112 47.3045093,0.12113112 L5.26704452,0.12113112 L5.268448,0.129552 Z" id="Path" stroke="#F2F2F2" stroke-width="1.0796" fill="url(#linearGradient-7)"></path>
                <path d="M4.059296,141.233272 C4.0722512,213.609656 3.99452,160.757406 4.059296,233.133142 C4.25513544,247.118065 19.6178434,257.795525 32.8025664,253.173325 C43.305347,250.191038 49.6097792,239.029702 48.3893994,228.476396 L48.3893994,141.231761 L4.059296,141.233272 Z" id="Path" fill="#C837AB"></path>
                <path d="M41.0248,236.00056 C37.0857714,238.426637 31.9226924,239.91411 26.247667,239.91411 C20.5726417,239.91411 15.4097786,238.494004 11.4705341,236.067927 C11.0595304,237.034385 10.8632591,238.045322 10.8632591,239.10441 C10.8632591,245.029255 17.7303788,249.832827 26.2475591,249.832827 C34.7647394,249.832827 41.6992261,245.029255 41.6992261,239.10441 C41.6992261,238.015525 41.4578923,236.990553 41.0244761,236.00056 L41.0248,236.00056 Z" id="Path" fill="url(#radialGradient-8)" opacity="0.25"></path>
                <path d="M48.279712,141.406008 C48.279712,142.929626 38.398781,144.164818 26.2105288,144.164818 C14.0222766,144.164818 4.1413456,142.929691 4.1413456,141.406008 C4.1413456,139.882325 14.0222766,138.647198 26.2105288,138.647198 C38.398781,138.647198 48.279712,139.882325 48.279712,141.406008 Z" id="Path" fill="url(#linearGradient-9)"></path>
                <path d="M33.3943815,135.068065 C31.2530813,135.068065 29.4808315,136.772861 29.4808315,138.91414 C29.4808315,139.823703 29.8335368,140.681942 30.3580065,141.34324 L36.3632815,141.34324 C36.8877296,140.681942 37.2404565,139.823703 37.2404565,138.91414 C37.2404565,136.772861 35.5356602,135.068065 33.3943815,135.068065 Z" id="Path" fill="url(#linearGradient-10)"></path>
                <path d="M28.1691426,128.220275 C28.1691426,130.855787 26.0326637,132.992159 23.3972577,132.992159 C20.7618517,132.992159 18.6253729,130.855681 18.6253729,128.220275 C18.6253729,125.584869 20.7618517,123.44839 23.3972577,123.44839 C26.0326637,123.44839 28.1691426,125.584869 28.1691426,128.220275 Z" id="Path" fill="url(#linearGradient-11)"></path>
                <path d="M37.3980247,119.416682 C37.3980247,121.310919 35.8624609,122.846407 33.9683003,122.846407 C32.0741397,122.846407 30.5385759,121.310843 30.5385759,119.416682 C30.5385759,117.522522 32.0741397,115.986958 33.9683003,115.986958 C35.8624609,115.986958 37.3980247,117.522522 37.3980247,119.416682 Z" id="Path" fill="url(#linearGradient-11)"></path>
                <path d="M29.0426599,110.158049 C29.0426599,111.640493 27.8409166,112.842176 26.3585329,112.842176 C24.8761491,112.842176 23.6744058,111.640433 23.6744058,110.158049 C23.6744058,108.675665 24.8761491,107.473922 26.3585329,107.473922 C27.8409166,107.473922 29.0426599,108.675665 29.0426599,110.158049 Z" id="Path" fill="url(#linearGradient-11)"></path>
                <path d="M17.7097584,133.719256 C17.7097584,135.860556 15.9739127,137.596316 13.8326989,137.596316 C11.691485,137.596316 9.95563936,135.86047 9.95563936,133.719256 C9.95563936,131.578042 11.691485,129.842196 13.8326989,129.842196 C15.9739127,129.842196 17.7097584,131.578042 17.7097584,133.719256 Z" id="Path" fill="url(#linearGradient-11)"></path>
                <path d="M39.4931879,104.652089 C39.4931879,106.134533 38.2914446,107.336216 36.8090609,107.336216 C35.3266771,107.336216 34.1249338,106.134473 34.1249338,104.652089 C34.1249338,103.169705 35.3266771,101.967962 36.8090609,101.967962 C38.2914446,101.967962 39.4931879,103.169705 39.4931879,104.652089 Z" id="Path" fill="url(#linearGradient-11)"></path>
                <path d="M10.990328,20.145336 C12.4716431,20.145336 13.6724862,21.7964712 13.6724862,23.8332496 L13.6724862,229.00907 C13.6724862,231.045849 12.4716431,232.696984 10.990328,232.696984 C9.50901291,232.696984 8.30816976,231.045849 8.30816976,229.00907 L8.30816976,23.8332496 C8.30816976,21.7964712 9.50901291,20.145336 10.990328,20.145336" id="Path" fill="#FFFFFF" opacity="0.2"></path>
                <path d="M2.10014588,13.9045571 C2.40657954,14.8209215 3.15491508,15.5692571 4.05692088,15.9288071 C4.05908008,27.5568764 4.05851869,39.1851832 4.05692088,50.8133821 C14.8015967,36.7762717 28.6649562,26.6375322 48.3879959,23.8233821 L48.3879959,15.9962821 C49.3418657,15.6447643 50.1092022,14.8784642 50.4122459,13.9045571 L2.10014588,13.9045571 Z" id="Path" fill="url(#linearGradient-12)"></path>
            </g>
            <g id="Group" transform="translate(64.018400, 0.386400)">
                <path d="M5.376408,0.993232 C3.56967581,0.993232 2.07024096,2.42527822 2.07024096,4.232032 L2.07024096,13.813482 C2.07024096,15.1911164 2.95931315,16.3030396 4.16196596,16.782382 C4.17556892,89.1825172 4.09710359,161.584812 4.16196596,233.97631 C4.35778381,247.961232 19.7205134,258.638692 32.9052364,254.016493 C43.408017,251.034206 49.7124492,239.872869 48.4920693,229.319563 L48.4920693,16.8413282 C49.7367186,16.3826493 50.6512693,15.2126868 50.6512693,13.8050611 L50.6512693,4.22361112 C50.6512693,2.41685734 49.2192015,0.98481112 47.4124693,0.98481112 L5.37500452,0.98481112 L5.376408,0.993232 Z" id="Path" stroke="#F2F2F2" stroke-width="1.0796" fill="url(#linearGradient-13)"></path>
                <path d="M4.1607784,142.07536 C4.17438136,214.451744 4.09593762,161.599494 4.1607784,233.97523 C4.35659625,247.960153 19.7193258,258.637613 32.9040488,254.015413 C43.4068294,251.033126 49.7112616,239.87179 48.4908818,229.318484 L48.4908818,142.073849 L4.1607784,142.07536 Z" id="Path" fill="#FFCC00"></path>
                <path d="M41.1370784,236.86424 C37.1980498,239.290317 32.0349708,240.77779 26.3599454,240.77779 C20.6849201,240.77779 15.522057,239.357684 11.5828125,236.931607 C11.1718088,237.898065 10.9755375,238.909002 10.9755375,239.96809 C10.9755375,245.892935 17.8426572,250.696507 26.3598375,250.696507 C34.8770178,250.696507 41.8115045,245.892935 41.8115045,239.96809 C41.8115045,238.879205 41.5701707,237.854233 41.1367545,236.86424 L41.1370784,236.86424 Z" id="Path" fill="url(#radialGradient-14)" opacity="0.25"></path>
                <path d="M48.3919904,142.248096 C48.3919904,143.771714 38.5110594,145.006906 26.3228072,145.006906 C14.134555,145.006906 4.253624,143.771779 4.253624,142.248096 C4.253624,140.724413 14.134555,139.489286 26.3228072,139.489286 C38.5110594,139.489286 48.3919904,140.724413 48.3919904,142.248096 Z" id="Path" fill="url(#linearGradient-15)"></path>
                <path d="M33.4987788,135.911621 C31.3575002,135.911621 29.5852288,137.616418 29.5852288,139.757696 C29.5852288,140.667259 29.9379558,141.525498 30.4624038,142.186796 L36.4676788,142.186796 C36.9921269,141.525498 37.3448538,140.667259 37.3448538,139.757696 C37.3448538,137.616418 35.6400575,135.911621 33.4987788,135.911621 Z" id="Path" fill="url(#linearGradient-16)"></path>
                <path d="M28.2619882,129.062363 C28.2619882,131.697875 26.1255093,133.834247 23.4901033,133.834247 C20.8546973,133.834247 18.7182185,131.697769 18.7182185,129.062363 C18.7182185,126.426957 20.8546973,124.290478 23.4901033,124.290478 C26.1255093,124.290478 28.2619882,126.426957 28.2619882,129.062363 Z" id="Path" fill="url(#linearGradient-17)"></path>
                <path d="M37.5081439,120.25877 C37.5081439,122.153007 35.9725801,123.688495 34.0784195,123.688495 C32.1842589,123.688495 30.6486951,122.152931 30.6486951,120.25877 C30.6486951,118.36461 32.1842589,116.829046 34.0784195,116.829046 C35.9725801,116.829046 37.5081439,118.36461 37.5081439,120.25877 Z" id="Path" fill="url(#linearGradient-17)"></path>
                <path d="M29.1570975,111.000137 C29.1570975,112.482581 27.9553542,113.684264 26.4729705,113.684264 C24.9905867,113.684264 23.7888434,112.482521 23.7888434,111.000137 C23.7888434,109.517753 24.9905867,108.31601 26.4729705,108.31601 C27.9553542,108.31601 29.1570975,109.517753 29.1570975,111.000137 Z" id="Path" fill="url(#linearGradient-17)"></path>
                <path d="M17.8220368,134.561344 C17.8220368,136.702644 16.0861911,138.438404 13.9449773,138.438404 C11.8037634,138.438404 10.0679178,136.702558 10.0679178,134.561344 C10.0679178,132.42013 11.8037634,130.684284 13.9449773,130.684284 C16.0861911,130.684284 17.8220368,132.42013 17.8220368,134.561344 Z" id="Path" fill="url(#linearGradient-17)"></path>
                <path d="M39.5946703,105.494177 C39.5946703,106.976621 38.392927,108.178304 36.9105433,108.178304 C35.4281595,108.178304 34.2264162,106.976561 34.2264162,105.494177 C34.2264162,104.011793 35.4281595,102.81005 36.9105433,102.81005 C38.392927,102.81005 39.5946703,104.011793 39.5946703,105.494177 Z" id="Path" fill="url(#linearGradient-17)"></path>
                <path d="M11.1026064,20.987424 C12.5839215,20.987424 13.7847646,22.6385592 13.7847646,24.6753376 L13.7847646,229.851158 C13.7847646,230.829254 13.5021809,231.767289 12.9991787,232.458907 C12.4961764,233.150525 11.813959,233.539072 11.1026064,233.539072 C9.62129131,233.539072 8.42044816,231.887937 8.42044816,229.851158 L8.42044816,24.6753376 C8.42044816,22.6385592 9.62129131,20.987424 11.1026064,20.987424" id="Path" fill="#FFFFFF" opacity="0.2"></path>
                <path d="M2.20456479,14.7481133 C2.51099846,15.6644778 3.25935558,16.4128133 4.16133979,16.7723633 C4.16349899,28.4004326 4.1629376,40.0287394 4.16133979,51.6569383 C14.9060372,37.619828 28.7693967,27.4810884 48.4924148,24.6669383 L48.4924148,16.8398383 C49.4462846,16.4883206 50.2136211,15.7220205 50.5166648,14.7481133 L2.20456479,14.7481133 Z" id="Path" fill="url(#linearGradient-18)"></path>
            </g>
            <g id="Group" transform="translate(129.745600, 1.286400)">
                <path d="M3.74232544,0.129552 C1.93559325,0.129552 0.4361584,1.56159822 0.4361584,3.368352 L0.4361584,12.949802 C0.4361584,14.3274364 1.32523059,15.4393596 2.5278834,15.918702 C2.54148636,88.3188372 2.46302103,160.721132 2.5278834,233.11263 C2.72370125,247.097552 18.0864308,257.775012 31.2711538,253.152813 C41.7739344,250.170526 48.0783666,239.009189 46.8579868,228.455883 L46.8579868,15.9776482 C48.102636,15.5189693 49.0171868,14.3490068 49.0171868,12.9413811 L49.0171868,3.35993112 C49.0171868,1.55317734 47.585119,0.12113112 45.7783868,0.12113112 L3.74092196,0.12113112 L3.74232544,0.129552 Z" id="Path" stroke="#F2F2F2" stroke-width="1.0796" fill="url(#linearGradient-19)"></path>
                <path d="M2.52777544,141.233272 C2.5413784,213.609656 2.46293466,160.757406 2.52777544,233.133142 C2.72359329,247.118065 18.0863229,257.795525 31.2710458,253.173325 C41.7738265,250.191038 48.0782586,239.029702 46.8578788,228.476396 L46.8578788,141.231761 L2.52777544,141.233272 Z" id="Path" fill="#AAD400"></path>
                <path d="M39.5047232,236.00056 C35.5656946,238.426637 30.4026156,239.91411 24.7275902,239.91411 C19.0525649,239.91411 13.8897018,238.494004 9.95045728,236.067927 C9.53945356,237.034385 9.34318228,238.045322 9.34318228,239.10441 C9.34318228,245.029255 16.210302,249.832827 24.7274823,249.832827 C33.2446626,249.832827 40.1791493,245.029255 40.1791493,239.10441 C40.1791493,238.015525 39.9378155,236.990553 39.5043993,236.00056 L39.5047232,236.00056 Z" id="Path" fill="url(#radialGradient-20)" opacity="0.25"></path>
                <path d="M46.7589874,141.406008 C46.7589874,142.929626 36.8780564,144.164818 24.6898042,144.164818 C12.5015521,144.164818 2.62062104,142.929691 2.62062104,141.406008 C2.62062104,139.882325 12.5015521,138.647198 24.6898042,138.647198 C36.8780564,138.647198 46.7589874,139.882325 46.7589874,141.406008 Z" id="Path" fill="url(#linearGradient-21)"></path>
                <path d="M31.8653009,135.068065 C29.7240222,135.068065 27.9517509,136.772861 27.9517509,138.91414 C27.9517509,139.823703 28.3044778,140.681942 28.8289259,141.34324 L34.8342009,141.34324 C35.358649,140.681942 35.7113759,139.823703 35.7113759,138.91414 C35.7113759,136.772861 34.0065795,135.068065 31.8653009,135.068065 Z" id="Path" fill="url(#linearGradient-22)"></path>
                <path d="M26.629633,128.220275 C26.629633,130.855787 24.4931541,132.992159 21.8577481,132.992159 C19.2223421,132.992159 17.0858633,130.855681 17.0858633,128.220275 C17.0858633,125.584869 19.2223421,123.44839 21.8577481,123.44839 C24.4931541,123.44839 26.629633,125.584869 26.629633,128.220275 Z" id="Path" fill="url(#linearGradient-23)"></path>
                <path d="M35.8736295,119.416682 C35.8736295,121.310919 34.3380657,122.846407 32.4439051,122.846407 C30.5497445,122.846407 29.0141807,121.310843 29.0141807,119.416682 C29.0141807,117.522522 30.5497445,115.986958 32.4439051,115.986958 C34.3380657,115.986958 35.8736295,117.522522 35.8736295,119.416682 Z" id="Path" fill="url(#linearGradient-23)"></path>
                <path d="M27.5225831,110.158049 C27.5225831,111.640493 26.3208398,112.842176 24.8384561,112.842176 C23.3560723,112.842176 22.154329,111.640433 22.154329,110.158049 C22.154329,108.675665 23.3560723,107.473922 24.8384561,107.473922 C26.3208398,107.473922 27.5225831,108.675665 27.5225831,110.158049 Z" id="Path" fill="url(#linearGradient-23)"></path>
                <path d="M16.1896816,133.719256 C16.1896816,135.860556 14.4538359,137.596316 12.3126221,137.596316 C10.1714082,137.596316 8.43556256,135.86047 8.43556256,133.719256 C8.43556256,131.578042 10.1714082,129.842196 12.3126221,129.842196 C14.4538359,129.842196 16.1896816,131.578042 16.1896816,133.719256 Z" id="Path" fill="url(#linearGradient-23)"></path>
                <path d="M37.9612355,104.652089 C37.9612355,106.134533 36.7594922,107.336216 35.2771085,107.336216 C33.7947247,107.336216 32.5929814,106.134473 32.5929814,104.652089 C32.5929814,103.169705 33.7947247,101.967962 35.2771085,101.967962 C36.7594922,101.967962 37.9612355,103.169705 37.9612355,104.652089 Z" id="Path" fill="url(#linearGradient-23)"></path>
                <path d="M9.46895568,20.145336 C10.9502708,20.145336 12.1511139,21.7964712 12.1511139,23.8332496 L12.1511139,229.00907 C12.1511139,231.045849 10.9502708,232.696984 9.46895568,232.696984 C7.98764059,232.696984 6.78679744,231.045849 6.78679744,229.00907 L6.78679744,23.8332496 C6.78679744,21.7964712 7.98764059,20.145336 9.46895568,20.145336" id="Path" fill="#FFFFFF" opacity="0.2"></path>
                <path d="M0.571065216,13.9045571 C0.87749888,14.8209215 1.62585601,15.5692571 2.52784022,15.9288071 C2.52999942,27.5568764 2.52943802,39.1851832 2.52784022,50.8133821 C13.272516,36.7762717 27.1358971,26.6375322 46.8589152,23.8233821 L46.8589152,15.9962821 C47.812785,15.6447643 48.5801215,14.8784642 48.8831652,13.9045571 L0.571065216,13.9045571 Z" id="Path" fill="url(#linearGradient-24)"></path>
            </g>
            <g id="Group" transform="translate(0.860000, 1.286400)">
                <path d="M4.447952,0.129552 C2.64121981,0.129552 1.14178496,1.56159822 1.14178496,3.368352 L1.14178496,12.949802 C1.14178496,14.3274364 2.03085715,15.4393596 3.23350996,15.918702 C3.24646516,88.3188372 3.16873396,160.721132 3.23350996,233.11263 C3.4293494,247.097552 18.7920574,257.775012 31.9767804,253.152813 C42.479561,250.170526 48.7839932,239.009189 47.5636133,228.455883 L47.5636133,15.9776482 C48.8082626,15.5189693 49.7228133,14.3490068 49.7228133,12.9413811 L49.7228133,3.35993112 C49.7228133,1.55317734 48.2907455,0.12113112 46.4840133,0.12113112 L4.44654852,0.12113112 L4.447952,0.129552 Z" id="Path" stroke="#F2F2F2" stroke-width="1.0796" fill="url(#linearGradient-25)"></path>
                <path d="M3.2388,141.233272 C3.2517552,213.609656 3.174024,160.757406 3.2388,233.133142 C3.43463944,247.118065 18.7973474,257.795525 31.9820704,253.173325 C42.484851,250.191038 48.7892832,239.029702 47.5689034,228.476396 L47.5689034,141.231761 L3.2388,141.233272 Z" id="Path" fill="#FF7F2A"></path>
                <path d="M40.204304,236.00056 C36.2652754,238.426637 31.1021964,239.91411 25.427171,239.91411 C19.7521457,239.91411 14.5892826,238.494004 10.6500381,236.067927 C10.2390344,237.034385 10.0427631,238.045322 10.0427631,239.10441 C10.0427631,245.029255 16.9098828,249.832827 25.4270631,249.832827 C33.9442434,249.832827 40.8787301,245.029255 40.8787301,239.10441 C40.8787301,238.015525 40.6373963,236.990553 40.2039801,236.00056 L40.204304,236.00056 Z" id="Path" fill="url(#radialGradient-26)" opacity="0.25"></path>
                <path d="M47.459216,141.406008 C47.459216,142.929626 37.578285,144.164818 25.3900328,144.164818 C13.2017806,144.164818 3.3208496,142.929691 3.3208496,141.406008 C3.3208496,139.882325 13.2017806,138.647198 25.3900328,138.647198 C37.578285,138.647198 47.459216,139.882325 47.459216,141.406008 Z" id="Path" fill="url(#linearGradient-27)"></path>
                <path d="M32.5704092,135.068065 C30.429109,135.068065 28.6568592,136.772861 28.6568592,138.91414 C28.6568592,139.823703 29.0095645,140.681942 29.5340342,141.34324 L35.5393092,141.34324 C36.0637573,140.681942 36.4164842,139.823703 36.4164842,138.91414 C36.4164842,136.772861 34.7116879,135.068065 32.5704092,135.068065 Z" id="Path" fill="url(#linearGradient-28)"></path>
                <path d="M27.3270546,128.220275 C27.3270546,130.855787 25.1905757,132.992159 22.5551697,132.992159 C19.9197637,132.992159 17.7832849,130.855681 17.7832849,128.220275 C17.7832849,125.584869 19.9197637,123.44839 22.5551697,123.44839 C25.1905757,123.44839 27.3270546,125.584869 27.3270546,128.220275 Z" id="Path" fill="url(#linearGradient-29)"></path>
                <path d="M36.5775287,119.416682 C36.5775287,121.310919 35.0419649,122.846407 33.1478043,122.846407 C31.2536437,122.846407 29.7180799,121.310843 29.7180799,119.416682 C29.7180799,117.522522 31.2536437,115.986958 33.1478043,115.986958 C35.0419649,115.986958 36.5775287,117.522522 36.5775287,119.416682 Z" id="Path" fill="url(#linearGradient-29)"></path>
                <path d="M28.2221639,110.158049 C28.2221639,111.640493 27.0204206,112.842176 25.5380369,112.842176 C24.0556531,112.842176 22.8539098,111.640433 22.8539098,110.158049 C22.8539098,108.675665 24.0556531,107.473922 25.5380369,107.473922 C27.0204206,107.473922 28.2221639,108.675665 28.2221639,110.158049 Z" id="Path" fill="url(#linearGradient-29)"></path>
                <path d="M16.8892624,133.719256 C16.8892624,135.860556 15.1534167,137.596316 13.0122029,137.596316 C10.870989,137.596316 9.13514336,135.86047 9.13514336,133.719256 C9.13514336,131.578042 10.870989,129.842196 13.0122029,129.842196 C15.1534167,129.842196 16.8892624,131.578042 16.8892624,133.719256 Z" id="Path" fill="url(#linearGradient-29)"></path>
                <path d="M38.6726919,104.652089 C38.6726919,106.134533 37.4709486,107.336216 35.9885649,107.336216 C34.5061811,107.336216 33.3044378,106.134473 33.3044378,104.652089 C33.3044378,103.169705 34.5061811,101.967962 35.9885649,101.967962 C37.4709486,101.967962 38.6726919,103.169705 38.6726919,104.652089 Z" id="Path" fill="url(#linearGradient-29)"></path>
                <path d="M10.169832,20.145336 C11.6511471,20.145336 12.8519902,21.7964712 12.8519902,23.8332496 L12.8519902,229.00907 C12.8519902,231.045849 11.6511471,232.696984 10.169832,232.696984 C8.68851691,232.696984 7.48767376,231.045849 7.48767376,229.00907 L7.48767376,23.8332496 C7.48767376,21.7964712 8.68851691,20.145336 10.169832,20.145336" id="Path" fill="#FFFFFF" opacity="0.2"></path>
                <path d="M1.27617357,13.9045571 C1.58260723,14.8209215 2.33094277,15.5692571 3.23294857,15.9288071 C3.23510777,27.5568764 3.23454638,39.1851832 3.23294857,50.8133821 C13.9776244,36.7762717 27.8409839,26.6375322 47.5640236,23.8233821 L47.5640236,15.9962821 C48.5178934,15.6447643 49.2852298,14.8784642 49.5882736,13.9045571 L1.27617357,13.9045571 Z" id="Path" fill="url(#linearGradient-30)"></path>
            </g>
        </g>
    </g>
</svg>